<svg width="512" height="512" viewBox="0 0 512 512" fill="none" xmlns="http://www.w3.org/2000/svg">
<circle cx="256" cy="256" r="256" fill="white"/>
<path d="M169.521 227.6C174.468 227.6 179.041 228.58 183.241 230.54C187.441 232.407 191.034 235.02 194.021 238.38C197.101 241.647 199.481 245.52 201.161 250C202.934 254.387 203.821 259.1 203.821 264.14C203.821 269.18 202.934 273.94 201.161 278.42C199.481 282.807 197.101 286.68 194.021 290.04C191.034 293.307 187.441 295.92 183.241 297.88C179.041 299.747 174.468 300.68 169.521 300.68C165.508 300.68 161.588 299.98 157.761 298.58C153.934 297.087 150.948 295.22 148.801 292.98V326.72H129.481V229.56H146.001L148.801 234.32C151.508 231.893 154.541 230.167 157.901 229.14C161.261 228.113 165.134 227.6 169.521 227.6ZM167.001 283.46C169.521 283.46 171.854 282.947 174.001 281.92C176.241 280.893 178.154 279.54 179.741 277.86C181.421 276.087 182.728 274.033 183.661 271.7C184.688 269.367 185.201 266.847 185.201 264.14C185.201 261.527 184.688 259.053 183.661 256.72C182.728 254.293 181.421 252.24 179.741 250.56C178.154 248.787 176.241 247.387 174.001 246.36C171.854 245.333 169.521 244.82 167.001 244.82C164.481 244.82 162.101 245.193 159.861 245.94C157.714 246.593 155.801 247.713 154.121 249.3C152.534 250.793 151.274 252.8 150.341 255.32C149.408 257.747 148.941 260.687 148.941 264.14C148.941 267.407 149.408 270.253 150.341 272.68C151.274 275.013 152.534 277.02 154.121 278.7C155.801 280.287 157.714 281.5 159.861 282.34C162.101 283.087 164.481 283.46 167.001 283.46ZM212.616 196.66H231.936V299H212.616V196.66Z" fill="black"/>
<path d="M279.895 229.56C282.508 229.56 285.401 229.933 288.575 230.68C291.748 231.427 294.735 232.827 297.535 234.88C300.335 236.933 302.668 239.78 304.535 243.42C306.495 247.06 307.475 251.773 307.475 257.56V299H288.015V258.26C288.015 256.113 287.641 254.293 286.895 252.8C286.241 251.307 285.308 250.14 284.095 249.3C282.975 248.367 281.668 247.713 280.175 247.34C278.681 246.873 277.188 246.64 275.695 246.64C274.481 246.64 273.128 246.873 271.635 247.34C270.235 247.713 268.881 248.367 267.575 249.3C266.361 250.233 265.335 251.447 264.495 252.94C263.655 254.433 263.235 256.207 263.235 258.26V299H243.915V229.56H260.435L263.235 234.88C265.475 233.293 267.995 232.033 270.795 231.1C273.595 230.073 276.628 229.56 279.895 229.56ZM355.637 229.56C358.25 229.56 361.143 229.933 364.317 230.68C367.49 231.427 370.477 232.827 373.277 234.88C376.077 236.933 378.41 239.78 380.277 243.42C382.237 247.06 383.217 251.773 383.217 257.56V299H363.757V258.26C363.757 256.113 363.383 254.293 362.637 252.8C361.983 251.307 361.05 250.14 359.837 249.3C358.717 248.367 357.41 247.713 355.917 247.34C354.423 246.873 352.93 246.64 351.437 246.64C350.223 246.64 348.87 246.873 347.377 247.34C345.977 247.713 344.623 248.367 343.317 249.3C342.103 250.233 341.077 251.447 340.237 252.94C339.397 254.433 338.977 256.207 338.977 258.26V299H319.657V229.56H336.177L338.977 234.88C341.217 233.293 343.737 232.033 346.537 231.1C349.337 230.073 352.37 229.56 355.637 229.56Z" fill="#FF833E"/>
</svg>
