<svg width="273" height="273" viewBox="0 0 273 49" fill="none" xmlns="http://www.w3.org/2000/svg">
<path d="M18 36.45C14.4 36.45 11.3167 35.7167 8.75 34.25C6.18333 32.7833 4.2 30.75 2.8 28.15C1.43333 25.5167 0.75 22.45 0.75 18.95C0.75 16.2833 1.16667 13.9 2 11.8C2.86667 9.66666 4.06667 7.85 5.6 6.35C7.13333 4.85 8.95 3.71667 11.05 2.95C13.15 2.15 15.4667 1.75 18 1.75C21.5 1.75 24.5333 2.43333 27.1 3.8C29.7 5.16666 31.7167 7.08333 33.15 9.55C34.5833 12.0167 35.3 14.9333 35.3 18.3C35.3 21 34.9 23.4667 34.1 25.7C33.3 27.9 32.1333 29.8 30.6 31.4C29.1 33 27.2833 34.25 25.15 35.15C23.0167 36.0167 20.6333 36.45 18 36.45ZM18.6 32.55C20 32.55 21.1667 32.0167 22.1 30.95C23.0667 29.85 23.8 28.3167 24.3 26.35C24.8 24.3833 25.05 22.05 25.05 19.35C25.05 16.7833 24.7333 14.4667 24.1 12.4C23.5 10.3 22.6167 8.63333 21.45 7.4C20.3167 6.13333 18.95 5.5 17.35 5.5C16.0167 5.5 14.8667 5.98333 13.9 6.95C12.9667 7.88333 12.25 9.26667 11.75 11.1C11.25 12.9 11 15.1167 11 17.75C11 19.75 11.15 21.65 11.45 23.45C11.75 25.2167 12.2 26.7833 12.8 28.15C13.4333 29.5167 14.2167 30.6 15.15 31.4C16.1167 32.1667 17.2667 32.55 18.6 32.55ZM42.3371 25.8V22.5C42.3371 21.4 42.2704 20.55 42.1371 19.95C42.0038 19.35 41.6871 18.9167 41.1871 18.65C40.6871 18.35 39.8871 18.15 38.7871 18.05C38.7871 17.4167 38.8204 16.7667 38.8871 16.1C38.9871 15.4333 39.1704 14.8333 39.4371 14.3C41.9038 14.3 44.1038 14.1333 46.0371 13.8C47.9704 13.4333 49.3371 13.05 50.1371 12.65C50.7038 12.8833 51.1204 13.2667 51.3871 13.8C51.6871 14.3 51.8371 14.9833 51.8371 15.85L42.3371 25.8ZM68.6371 27.9C68.6371 29.5333 68.7871 30.6667 69.0871 31.3C69.3871 31.9333 69.9538 32.25 70.7871 32.25C71.0204 32.7833 71.1704 33.3667 71.2371 34C71.3038 34.6 71.3371 35.3167 71.3371 36.15C70.6038 36.1167 69.5538 36.0833 68.1871 36.05C66.8204 36.0167 65.5538 36 64.3871 36C63.6204 36 62.6871 36 61.5871 36C60.4871 36.0333 59.4371 36.05 58.4371 36.05C57.4704 36.0833 56.7371 36.1167 56.2371 36.15C56.2371 35.45 56.2538 34.7833 56.2871 34.15C56.3538 33.4833 56.5038 32.85 56.7371 32.25C57.4371 32.25 58.0038 31.9 58.4371 31.2C58.9038 30.5 59.1371 29.2167 59.1371 27.35V23.9C59.1371 22 58.8871 20.6667 58.3871 19.9C57.8871 19.1333 57.1038 18.75 56.0371 18.75C55.2371 18.75 54.5204 19.0833 53.8871 19.75C53.2538 20.4167 52.7538 21.3333 52.3871 22.5C52.0204 23.6333 51.8371 24.9667 51.8371 26.5V27.9C51.8371 29.6333 52.0371 30.8 52.4371 31.4C52.8704 31.9667 53.4538 32.25 54.1871 32.25C54.4538 32.8833 54.6038 33.5 54.6371 34.1C54.7038 34.7 54.7371 35.3833 54.7371 36.15C54.2371 36.1167 53.5371 36.0833 52.6371 36.05C51.7371 36.05 50.7871 36.0333 49.7871 36C48.8204 36 47.9204 36 47.0871 36C46.2871 36 45.3204 36 44.1871 36C43.0538 36.0333 41.9704 36.05 40.9371 36.05C39.9038 36.0833 39.1371 36.1167 38.6371 36.15C38.6371 35.3833 38.6704 34.65 38.7371 33.95C38.8371 33.25 38.9704 32.6833 39.1371 32.25C40.4371 32.25 41.2871 31.95 41.6871 31.35C42.1204 30.7167 42.3371 29.5667 42.3371 27.9V22.5L51.8371 15.85C51.8371 16.25 51.7704 16.7167 51.6371 17.25C51.5371 17.7833 51.4038 18.3333 51.2371 18.9C51.5038 18.2333 51.7871 17.6167 52.0871 17.05C52.3871 16.4833 52.7538 15.9833 53.1871 15.55C53.9871 14.75 54.9538 14.1167 56.0871 13.65C57.2538 13.15 58.5371 12.9 59.9371 12.9C61.4371 12.9 62.8538 13.1833 64.1871 13.75C65.5204 14.2833 66.5871 15.15 67.3871 16.35C68.2204 17.55 68.6371 19.1167 68.6371 21.05V27.9ZM80.5977 5.95C79.3977 5.95 78.381 6.18333 77.5477 6.65C76.7477 7.11667 76.081 7.81667 75.5477 8.75C75.0477 9.68333 74.6143 10.8833 74.2477 12.35C73.3143 12.35 72.3977 12.3167 71.4977 12.25C70.5977 12.15 69.7977 11.9333 69.0977 11.6C69.4643 10.2333 69.7643 8.65 69.9977 6.85C70.231 5.05 70.3477 3.45 70.3477 2.05C71.7477 2.08333 73.131 2.11666 74.4977 2.15C75.8643 2.18333 77.4477 2.2 79.2477 2.2C81.0477 2.2 83.2977 2.2 85.9977 2.2C88.3977 2.2 90.481 2.2 92.2477 2.2C94.0477 2.16666 95.6643 2.15 97.0977 2.15C98.5643 2.11666 99.981 2.08333 101.348 2.05C101.348 3.45 101.448 5.01667 101.648 6.75C101.881 8.45 102.181 10.05 102.548 11.55C101.881 11.8167 101.098 12.0167 100.198 12.15C99.331 12.2833 98.381 12.35 97.3477 12.35C96.9143 10.0833 96.281 8.45 95.4477 7.45C94.6477 6.45 93.3977 5.95 91.6977 5.95H80.5977ZM80.6977 3.95H90.6977V26.65C90.6977 28.1833 90.8143 29.35 91.0477 30.15C91.3143 30.9167 91.7977 31.45 92.4977 31.75C93.1977 32.0167 94.231 32.1833 95.5977 32.25C95.7643 32.6833 95.881 33.2833 95.9477 34.05C96.0477 34.7833 96.0977 35.4833 96.0977 36.15C95.1643 36.0833 93.831 36.0333 92.0977 36C90.3977 36 88.481 36 86.3477 36C84.9477 36 83.481 36 81.9477 36C80.4477 36.0333 79.0643 36.05 77.7977 36.05C76.531 36.0833 75.531 36.1167 74.7977 36.15C74.7977 35.55 74.8643 34.8667 74.9977 34.1C75.131 33.3333 75.2643 32.7167 75.3977 32.25C76.7977 32.1833 77.881 32.0167 78.6477 31.75C79.4143 31.45 79.9477 30.9167 80.2477 30.15C80.5477 29.35 80.6977 28.1833 80.6977 26.65V3.95ZM133.809 27.9C133.809 29.5333 133.959 30.6667 134.259 31.3C134.559 31.9333 135.125 32.25 135.959 32.25C136.192 32.7833 136.342 33.3667 136.409 34C136.475 34.6 136.509 35.3167 136.509 36.15C135.775 36.1167 134.725 36.0833 133.359 36.05C131.992 36.0167 130.725 36 129.559 36C128.792 36 127.859 36 126.759 36C125.659 36.0333 124.609 36.05 123.609 36.05C122.642 36.0833 121.909 36.1167 121.409 36.15C121.409 35.45 121.425 34.7833 121.459 34.15C121.525 33.4833 121.675 32.85 121.909 32.25C122.609 32.25 123.175 31.9 123.609 31.2C124.075 30.5 124.309 29.2167 124.309 27.35V23.9C124.309 22 124.059 20.6667 123.559 19.9C123.059 19.1333 122.275 18.75 121.209 18.75C120.409 18.75 119.692 19.0833 119.059 19.75C118.425 20.4167 117.925 21.3333 117.559 22.5C117.192 23.6333 117.009 24.9667 117.009 26.5V27.9C117.009 29.6333 117.209 30.8 117.609 31.4C118.042 31.9667 118.625 32.25 119.359 32.25C119.625 32.8833 119.775 33.5 119.809 34.1C119.875 34.7 119.909 35.3833 119.909 36.15C119.409 36.1167 118.709 36.0833 117.809 36.05C116.909 36.05 115.959 36.0333 114.959 36C113.992 36 113.092 36 112.259 36C111.459 36 110.492 36 109.359 36C108.225 36.0333 107.142 36.05 106.109 36.05C105.075 36.0833 104.309 36.1167 103.809 36.15C103.809 35.3833 103.842 34.65 103.909 33.95C104.009 33.25 104.142 32.6833 104.309 32.25C105.609 32.25 106.459 31.95 106.859 31.35C107.292 30.7167 107.509 29.5667 107.509 27.9V22.5L117.009 15.85C117.009 16.25 116.942 16.7167 116.809 17.25C116.709 17.7833 116.575 18.3333 116.409 18.9C116.675 18.2333 116.959 17.6167 117.259 17.05C117.559 16.4833 117.925 15.9833 118.359 15.55C119.159 14.75 120.125 14.1167 121.259 13.65C122.425 13.15 123.709 12.9 125.109 12.9C126.609 12.9 128.025 13.1833 129.359 13.75C130.692 14.2833 131.759 15.15 132.559 16.35C133.392 17.55 133.809 19.1167 133.809 21.05V27.9ZM107.509 9.05C107.509 8.28333 107.409 7.66666 107.209 7.2C107.009 6.7 106.642 6.33333 106.109 6.1C105.575 5.83333 104.809 5.65 103.809 5.55C103.809 4.91667 103.842 4.26667 103.909 3.6C104.009 2.93333 104.192 2.33333 104.459 1.8C106.125 1.8 107.675 1.71667 109.109 1.55C110.542 1.38333 111.792 1.18333 112.859 0.949998C113.925 0.683331 114.725 0.416665 115.259 0.15C115.825 0.383332 116.259 0.766665 116.559 1.3C116.859 1.8 117.009 2.48333 117.009 3.35V9.2H107.509V9.05ZM107.509 7.65H117.009V15.85L107.509 24.35V7.65ZM151.35 36.45C148.15 36.45 145.567 35.95 143.6 34.95C141.667 33.9167 140.25 32.5333 139.35 30.8C138.45 29.0333 138 27.0333 138 24.8C138 22.2333 138.517 20.05 139.55 18.25C140.583 16.45 142.05 15.0667 143.95 14.1C145.883 13.1333 148.133 12.65 150.7 12.65C153.3 12.65 155.433 13.1 157.1 14C158.8 14.9 160.067 16.1833 160.9 17.85C161.733 19.4833 162.167 21.4 162.2 23.6C161.9 24.8333 161.35 25.8167 160.55 26.55C159.45 26.55 158.267 26.5667 157 26.6C155.733 26.6 154.433 26.6167 153.1 26.65C151.767 26.65 150.433 26.6833 149.1 26.75C147.767 26.8167 146.483 26.9 145.25 27V23.05H153.95C153.95 20.7833 153.683 19.1 153.15 18C152.65 16.9 151.883 16.35 150.85 16.35C150.083 16.35 149.433 16.6333 148.9 17.2C148.4 17.7667 148.017 18.5667 147.75 19.6C147.517 20.6333 147.4 21.85 147.4 23.25C147.4 25.0167 147.617 26.55 148.05 27.85C148.517 29.15 149.233 30.15 150.2 30.85C151.2 31.5167 152.5 31.85 154.1 31.85C155.3 31.85 156.5 31.6667 157.7 31.3C158.9 30.9333 159.867 30.4833 160.6 29.95C160.967 30.1833 161.283 30.6333 161.55 31.3C161.817 31.9667 161.95 32.6667 161.95 33.4C160.583 34.3333 159.05 35.0833 157.35 35.65C155.65 36.1833 153.65 36.45 151.35 36.45ZM161.756 2.05C162.156 2.08333 162.739 2.11666 163.506 2.15C164.273 2.15 165.089 2.16666 165.956 2.2C166.856 2.2 167.673 2.2 168.406 2.2C169.173 2.2 169.756 2.2 170.156 2.2C170.689 2.2 171.473 2.2 172.506 2.2C173.573 2.2 174.689 2.18333 175.856 2.15C177.023 2.11666 177.989 2.08333 178.756 2.05C178.756 2.75 178.723 3.43333 178.656 4.1C178.623 4.73333 178.523 5.35 178.356 5.95C177.356 6.08333 176.623 6.33333 176.156 6.7C175.689 7.03333 175.489 7.6 175.556 8.4C175.623 9.16666 175.923 10.3 176.456 11.8C176.889 13.0667 177.306 14.4 177.706 15.8C178.139 17.1667 178.589 18.6667 179.056 20.3C179.523 21.9 180.023 23.6667 180.556 25.6H178.206L186.506 2.2C187.139 2.03333 187.839 1.93333 188.606 1.9C189.373 1.83333 190.073 1.8 190.706 1.8C191.873 4.66666 192.939 7.36666 193.906 9.9C194.906 12.4333 195.889 14.9667 196.856 17.5C197.823 20.0333 198.823 22.7333 199.856 25.6H197.856L201.606 13.1C202.373 10.6 202.539 8.85 202.106 7.85C201.673 6.85 200.656 6.21666 199.056 5.95C198.823 5.38333 198.673 4.75 198.606 4.05C198.573 3.35 198.556 2.68333 198.556 2.05C199.256 2.08333 200.206 2.11666 201.406 2.15C202.606 2.18333 203.656 2.2 204.556 2.2C205.323 2.2 206.256 2.18333 207.356 2.15C208.456 2.11666 209.339 2.08333 210.006 2.05C210.006 2.71667 209.989 3.38333 209.956 4.05C209.923 4.68333 209.789 5.31667 209.556 5.95C208.956 6.15 208.439 6.48333 208.006 6.95C207.573 7.41667 207.156 8.13333 206.756 9.1C206.389 10.0333 205.939 11.3667 205.406 13.1L198.656 36C198.123 36.1333 197.306 36.2333 196.206 36.3C195.106 36.4 194.123 36.45 193.256 36.45C192.256 33.6833 191.289 31.1 190.356 28.7C189.456 26.2667 188.523 23.8333 187.556 21.4C186.623 18.9667 185.573 16.35 184.406 13.55H186.606L178.606 36.1C178.173 36.2 177.623 36.2667 176.956 36.3C176.323 36.3667 175.673 36.4 175.006 36.4C174.373 36.4333 173.839 36.45 173.406 36.45C172.073 31.9833 170.773 27.6833 169.506 23.55C168.239 19.4167 167.089 15.7833 166.056 12.65C165.389 10.6833 164.873 9.25 164.506 8.35C164.139 7.45 163.789 6.86667 163.456 6.6C163.123 6.3 162.673 6.13333 162.106 6.1C161.939 5.5 161.839 4.86666 161.806 4.2C161.773 3.5 161.756 2.78333 161.756 2.05ZM225.425 36.45C224.692 36.1833 224.192 35.8167 223.925 35.35C223.659 34.85 223.525 34.2667 223.525 33.6C223.525 33.1 223.575 32.5167 223.675 31.85C223.809 31.15 223.992 30.4833 224.225 29.85L224.425 29.55C224.059 30.75 223.625 31.75 223.125 32.55C222.625 33.35 222.059 34 221.425 34.5C220.659 35.1333 219.742 35.6 218.675 35.9C217.642 36.2 216.475 36.35 215.175 36.35C212.809 36.35 210.942 35.8667 209.575 34.9C208.209 33.9 207.525 32.4333 207.525 30.5C207.525 29.2333 207.809 28.15 208.375 27.25C208.942 26.3167 209.725 25.5333 210.725 24.9C211.759 24.2333 212.909 23.7 214.175 23.3C215.475 22.8667 216.842 22.5167 218.275 22.25C219.742 21.9833 221.209 21.75 222.675 21.55C222.675 20.9167 222.642 20.3333 222.575 19.8C222.509 19.2667 222.392 18.7833 222.225 18.35C222.092 17.8833 221.859 17.4833 221.525 17.15C221.159 16.75 220.742 16.4833 220.275 16.35C219.809 16.1833 219.375 16.1 218.975 16.1C218.209 16.1 217.575 16.3333 217.075 16.8C216.609 17.2333 216.242 17.8667 215.975 18.7C215.709 19.5 215.509 20.45 215.375 21.55C214.209 21.55 213.209 21.5167 212.375 21.45C211.542 21.3833 210.725 21.2 209.925 20.9C209.992 19.9333 210.009 18.9333 209.975 17.9C209.975 16.8667 209.842 15.7167 209.575 14.45C211.042 13.8833 212.809 13.4333 214.875 13.1C216.942 12.7667 218.942 12.6 220.875 12.6C223.409 12.6 225.375 12.8667 226.775 13.4C228.175 13.9 229.209 14.4833 229.875 15.15C230.475 15.75 231.009 16.65 231.475 17.85C231.942 19.0167 232.175 20.8 232.175 23.2V26.5C232.175 27.7 232.242 28.6167 232.375 29.25C232.509 29.85 232.775 30.25 233.175 30.45C233.575 30.65 234.175 30.7667 234.975 30.8C235.109 31.5333 235.125 32.2333 235.025 32.9C234.959 33.5667 234.759 34.1833 234.425 34.75C232.892 34.7833 231.359 34.9333 229.825 35.2C228.292 35.4667 226.825 35.8833 225.425 36.45ZM218.625 30.9C219.259 30.9 219.875 30.7 220.475 30.3C221.109 29.9 221.625 29.3 222.025 28.5C222.459 27.7 222.675 26.7333 222.675 25.6V24.75C221.542 24.9833 220.592 25.25 219.825 25.55C219.059 25.8167 218.442 26.1167 217.975 26.45C217.542 26.7833 217.225 27.15 217.025 27.55C216.859 27.95 216.775 28.3833 216.775 28.85C216.775 29.5833 216.959 30.1167 217.325 30.45C217.692 30.75 218.125 30.9 218.625 30.9ZM254.405 21.1C255.072 19.5333 255.305 18.4667 255.105 17.9C254.905 17.3333 254.338 16.9833 253.405 16.85C253.238 16.3833 253.105 15.8 253.005 15.1C252.905 14.3667 252.855 13.65 252.855 12.95C253.622 12.9833 254.455 13.0167 255.355 13.05C256.288 13.0833 257.138 13.1 257.905 13.1C258.738 13.1 259.555 13.0833 260.355 13.05C261.155 13.0167 261.922 12.9667 262.655 12.9C262.655 13.5 262.605 14.1667 262.505 14.9C262.405 15.6333 262.238 16.2833 262.005 16.85C261.505 16.9833 261.072 17.1667 260.705 17.4C260.338 17.6333 260.005 17.9833 259.705 18.45C259.405 18.9167 259.072 19.55 258.705 20.35L251.355 37.85C250.422 40.1167 249.538 41.95 248.705 43.35C247.905 44.75 247.122 45.8167 246.355 46.55C245.622 47.2833 244.855 47.7833 244.055 48.05C243.288 48.3167 242.472 48.45 241.605 48.45C240.505 48.45 239.405 48.1833 238.305 47.65C237.238 47.15 236.438 46.5167 235.905 45.75C235.805 45.0833 235.805 44.2167 235.905 43.15C236.005 42.1167 236.222 41.1833 236.555 40.35C237.122 40.5833 237.922 40.8 238.955 41C239.988 41.2 241.122 41.3 242.355 41.3C243.522 41.3 244.422 41.15 245.055 40.85C245.688 40.55 246.272 39.9833 246.805 39.15C247.005 38.85 247.488 37.8833 248.255 36.25C249.022 34.6167 249.922 32.4667 250.955 29.8L254.405 21.1ZM247.155 38.95C246.322 36.9167 245.405 34.8 244.405 32.6C243.405 30.3667 242.405 28.1667 241.405 26C240.405 23.8333 239.455 21.85 238.555 20.05C238.155 19.1833 237.772 18.55 237.405 18.15C237.072 17.7167 236.722 17.4167 236.355 17.25C236.022 17.05 235.638 16.9167 235.205 16.85C235.038 16.35 234.905 15.7333 234.805 15C234.738 14.2333 234.705 13.55 234.705 12.95C235.672 12.9833 236.838 13.0167 238.205 13.05C239.572 13.0833 240.955 13.1 242.355 13.1C243.822 13.1 245.355 13.0833 246.955 13.05C248.555 13.0167 249.872 12.9833 250.905 12.95C250.905 13.5833 250.838 14.3 250.705 15.1C250.605 15.8667 250.472 16.45 250.305 16.85C249.072 17.05 248.388 17.3833 248.255 17.85C248.122 18.3167 248.422 19.25 249.155 20.65C249.655 21.5833 250.122 22.5667 250.555 23.6C251.022 24.6333 251.455 25.7333 251.855 26.9C252.288 28.0333 252.688 29.2667 253.055 30.6L247.155 38.95ZM266.818 36.4C265.218 36.4 263.951 35.95 263.018 35.05C262.118 34.1167 261.668 32.8833 261.668 31.35C261.668 29.7833 262.185 28.5667 263.218 27.7C264.285 26.8333 265.585 26.4 267.118 26.4C268.618 26.4 269.801 26.8833 270.668 27.85C271.568 28.8167 272.018 29.9 272.018 31.1C272.018 32.5333 271.568 33.7833 270.668 34.85C269.768 35.8833 268.485 36.4 266.818 36.4Z" fill="black"/>
</svg>
